#N canvas 5944 79 1553 924 12;
#X obj 199 739 dac~;
#X obj 381 40 notein 1;
#X obj 328 177 route 1 2 3 4;
#X obj 328 138 pack 0 0 0;
#X obj 199 600 voice;
#X obj 356 467 voice;
#X obj 503 341 voice;
#X obj 643 214 voice;
#X obj 381 79 poly 4;
#X obj 329 726 scope;
#X obj 268 138 s note;
#X obj 640 690 r note;
#X connect 1 0 8 0;
#X connect 1 0 10 0;
#X connect 1 1 8 1;
#X connect 2 0 4 1;
#X connect 2 1 5 1;
#X connect 2 2 6 1;
#X connect 2 3 7 1;
#X connect 3 0 2 0;
#X connect 4 0 0 0;
#X connect 4 0 0 1;
#X connect 4 0 9 0;
#X connect 5 0 4 0;
#X connect 6 0 5 0;
#X connect 7 0 6 0;
#X connect 8 0 3 0;
#X connect 8 1 3 1;
#X connect 8 2 3 2;
#X connect 11 0 9 1;
