#N canvas 6258 224 784 717 12;
#X obj 9 347 mtof;
#X obj -5 488 osc~;
#X obj 48 570 *~;
#X obj 160 449 dbtorms;
#X obj 192 285 log 127;
#X obj 282 346 -;
#X floatatom 172 162 5 0 40 0 vol_range #0-range -;
#X floatatom 172 196 5 0 80 0 vol_limit #0-limit -;
#X obj 197 381 +;
#X obj 197 346 *;
#X obj 294 245 f;
#X obj 355 245 t b f;
#X obj 72 519 line~;
#X obj 130 487 pack 0 10;
#X obj -41 634 outlet~;
#X obj -47 226 inlet~;
#X obj -40 597 +~;
#X obj 142 245 select 0;
#X msg 86 373 0 500;
#X floatatom 160 415 5 0 0 0 - - -;
#X floatatom 2 416 5 0 0 0 - - -;
#X obj 18 169 inlet;
#X obj 6 225 unpack f f;
#X obj 246 31 loadbang;
#X msg 243 92 40;
#X obj 243 127 send \$0-range;
#X msg 362 92 80;
#X obj 362 127 send \$0-limit;
#X connect 0 0 20 0;
#X connect 1 0 2 0;
#X connect 2 0 16 0;
#X connect 3 0 13 0;
#X connect 4 0 9 0;
#X connect 5 0 8 1;
#X connect 6 0 11 0;
#X connect 7 0 10 0;
#X connect 8 0 19 0;
#X connect 9 0 8 0;
#X connect 10 0 5 0;
#X connect 11 0 10 0;
#X connect 11 1 5 1;
#X connect 11 1 9 1;
#X connect 12 0 2 1;
#X connect 13 0 12 0;
#X connect 15 0 16 0;
#X connect 16 0 14 0;
#X connect 17 0 18 0;
#X connect 17 1 4 0;
#X connect 18 0 12 0;
#X connect 19 0 3 0;
#X connect 20 0 1 0;
#X connect 21 0 22 0;
#X connect 22 0 0 0;
#X connect 22 1 17 0;
#X connect 23 0 24 0;
#X connect 23 0 26 0;
#X connect 24 0 25 0;
#X connect 26 0 27 0;
#X coords 0 -1 1 1 120 120 1 100 100;
